<?xml version="1.0" encoding="iso-8859-1"?>
<!-- Generator: Adobe Illustrator 19.0.0, SVG Export Plug-In . SVG Version: 6.00 Build 0)  -->
<svg version="1.1" id="Capa_1" xmlns="http://www.w3.org/2000/svg" xmlns:xlink="http://www.w3.org/1999/xlink" x="0px" y="0px"
	 viewBox="0 0 512 512" style="enable-background:new 0 0 512 512;" xml:space="preserve">
<path style="fill:#795548;" d="M512,74.667V160H0V74.667C0,33.429,33.429,0,74.667,0h362.667C478.571,0,512,33.429,512,74.667
	L512,74.667z"/>
<path style="fill:#BDBDBD;" d="M512,160v277.333C512,478.571,478.571,512,437.333,512H74.667C33.429,512,0,478.571,0,437.333V160
	H512z"/>
<path style="fill:#37474F;" d="M373.333,42.667h64c5.891,0,10.667,4.776,10.667,10.667v64c0,5.891-4.776,10.667-10.667,10.667h-64
	c-5.891,0-10.667-4.776-10.667-10.667v-64C362.667,47.442,367.442,42.667,373.333,42.667z"/>
<path style="fill:#F44336;" d="M53.333,106.667c-5.891,0-10.667-4.776-10.667-10.667V21.333c0-5.891,4.776-10.667,10.667-10.667
	S64,15.442,64,21.333V96C64,101.891,59.224,106.667,53.333,106.667z"/>
<path style="fill:#FFC107;" d="M96,106.667c-5.891,0-10.667-4.776-10.667-10.667V10.667C85.333,4.776,90.109,0,96,0
	c5.891,0,10.667,4.776,10.667,10.667V96C106.667,101.891,101.891,106.667,96,106.667z"/>
<path style="fill:#4CAF50;" d="M138.667,106.667C132.776,106.667,128,101.891,128,96V10.667C128,4.776,132.776,0,138.667,0
	s10.667,4.776,10.667,10.667V96C149.333,101.891,144.558,106.667,138.667,106.667z"/>
<circle style="fill:#455A64;" cx="256" cy="256" r="117.333"/>
<path style="fill:#8D6E63;" d="M256,384c-70.692,0-128-57.308-128-128s57.308-128,128-128s128,57.308,128,128
	C383.918,326.658,326.658,383.918,256,384z M256,149.333c-58.91,0-106.667,47.756-106.667,106.667S197.09,362.667,256,362.667
	S362.667,314.91,362.667,256C362.596,197.119,314.881,149.404,256,149.333z"/>
<circle style="fill:#37474F;" cx="256" cy="256" r="64"/>
<path d="M437.333,512H74.667C33.429,512,0,478.571,0,437.333V74.667C0,33.429,33.429,0,74.667,0h362.667
	C478.571,0,512,33.429,512,74.667l0,0v362.667C512,478.571,478.571,512,437.333,512z M74.667,21.333
	c-29.455,0-53.333,23.878-53.333,53.333v362.667c0,29.455,23.878,53.333,53.333,53.333h362.667
	c29.455,0,53.333-23.878,53.333-53.333V74.667c0-29.455-23.878-53.333-53.333-53.333H74.667z"/>
<path d="M181.333,170.667H10.667C4.776,170.667,0,165.891,0,160c0-5.891,4.776-10.667,10.667-10.667h170.667
	c5.891,0,10.667,4.776,10.667,10.667C192,165.891,187.224,170.667,181.333,170.667z"/>
<path d="M501.333,170.667H330.667c-5.891,0-10.667-4.776-10.667-10.667c0-5.891,4.776-10.667,10.667-10.667h170.667
	c5.891,0,10.667,4.776,10.667,10.667C512,165.891,507.224,170.667,501.333,170.667z"/>
<path d="M437.333,128h-64c-5.891,0-10.667-4.776-10.667-10.667v-64c0-5.891,4.776-10.667,10.667-10.667h64
	c5.891,0,10.667,4.776,10.667,10.667v64C448,123.224,443.224,128,437.333,128z M384,106.667h42.667V64H384V106.667z"/>
<path d="M53.333,106.667c-5.891,0-10.667-4.776-10.667-10.667V21.333c0-5.891,4.776-10.667,10.667-10.667S64,15.442,64,21.333V96
	C64,101.891,59.224,106.667,53.333,106.667z"/>
<path d="M96,106.667c-5.891,0-10.667-4.776-10.667-10.667V10.667C85.333,4.776,90.109,0,96,0c5.891,0,10.667,4.776,10.667,10.667V96
	C106.667,101.891,101.891,106.667,96,106.667z"/>
<path d="M138.667,106.667C132.776,106.667,128,101.891,128,96V10.667C128,4.776,132.776,0,138.667,0s10.667,4.776,10.667,10.667V96
	C149.333,101.891,144.558,106.667,138.667,106.667z"/>
<path d="M256,384c-70.692,0-128-57.308-128-128s57.308-128,128-128s128,57.308,128,128C383.918,326.658,326.658,383.918,256,384z
	 M256,149.333c-58.91,0-106.667,47.756-106.667,106.667S197.09,362.667,256,362.667S362.667,314.91,362.667,256
	C362.596,197.119,314.881,149.404,256,149.333z"/>
<path d="M256,320c-35.346,0-64-28.654-64-64s28.654-64,64-64s64,28.654,64,64S291.346,320,256,320z M256,213.333
	c-23.564,0-42.667,19.103-42.667,42.667s19.103,42.667,42.667,42.667s42.667-19.103,42.667-42.667S279.564,213.333,256,213.333z"/>
<g>
</g>
<g>
</g>
<g>
</g>
<g>
</g>
<g>
</g>
<g>
</g>
<g>
</g>
<g>
</g>
<g>
</g>
<g>
</g>
<g>
</g>
<g>
</g>
<g>
</g>
<g>
</g>
<g>
</g>
</svg>
