<?xml version="1.0" encoding="iso-8859-1"?>
<!-- Generator: Adobe Illustrator 19.0.0, SVG Export Plug-In . SVG Version: 6.00 Build 0)  -->
<svg version="1.1" id="Layer_1" xmlns="http://www.w3.org/2000/svg" xmlns:xlink="http://www.w3.org/1999/xlink" x="0px" y="0px"
	 viewBox="0 0 490 490" style="enable-background:new 0 0 490 490;" xml:space="preserve">
<g>
	<g>
		<path style="fill:#61A8DE;" d="M480,30v430c0,10.996-9.004,20-20,20H30c-10.996,0-20-9.004-20-20V30c0-11.001,9.004-20,20-20h430
			C470.996,10,480,18.999,480,30z"/>
	</g>
	<g>
		<g id="XMLID_38_">
			<g>
				<path style="fill:#FFFFFF;" d="M382.598,107.495C405,100.493,420,110.493,420,125.493c0,0-57.402,247.007-67.402,267.007
					s-25,10-25,10l-85-60c0,0-15,15-35,35s-30,0-30,0l-35-95c0,0-55.703-6.309-75-25C50,240.493,65,230.493,65,230.493
					L382.598,107.495z M235,275.498l135-130.005L170,260.498l30,80L235,275.498z"/>
			</g>
			<g>
				<path style="fill:#231F20;" d="M460,0H30C13.458,0,0,13.458,0,30v430c0,16.542,13.458,30,30,30h430c16.542,0,30-13.458,30-30V30
					C490,13.458,476.542,0,460,0z M470,460c0,5.514-4.486,10-10,10H30c-5.514,0-10-4.486-10-10V30c0-5.514,4.486-10,10-10h430
					c5.514,0,10,4.486,10,10V460z"/>
				<path style="fill:#231F20;" d="M396.428,95.214c-5.348,0-11.004,0.92-16.813,2.736c-0.212,0.066-0.421,0.14-0.628,0.22
					L61.389,221.168c-0.68,0.263-1.329,0.6-1.936,1.005c-0.952,0.635-9.333,6.518-10.319,17.433
					c-0.771,8.517,3.104,16.957,11.507,25.078c17.774,17.217,58.553,24.621,74.664,26.947l32.909,89.327
					c0.128,0.347,0.274,0.686,0.439,1.016c2.679,5.354,10.384,14.416,22.277,14.416c7.91,0,15.896-3.976,23.738-11.817
					l29.044-29.044l78.118,55.143c0.072,0.051,0.146,0.101,0.22,0.15c1.047,0.698,6.656,4.18,14.297,4.18
					c6.043,0,17.352-2.342,25.194-18.028c10.233-20.466,62.296-243.816,68.198-269.215c0.173-0.742,0.26-1.502,0.26-2.264
					C430,107.948,415.881,95.214,396.428,95.214z M343.653,388.028c-1.59,3.181-4.148,6.972-7.306,6.972
					c-1.383,0-2.733-0.58-3.271-0.873l-84.713-59.797c-3.977-2.807-9.396-2.343-12.838,1.099l-35,35
					c-5.53,5.53-8.742,5.96-9.596,5.96c-1.984,0-3.676-2.288-4.252-3.166l-34.697-94.18c-1.307-3.545-4.502-6.052-8.255-6.479
					c-14.564-1.659-55.382-8.89-69.18-22.255c-5.289-5.111-5.548-8.044-5.501-8.822c0.057-0.937,0.662-1.765,1.138-2.278
					l315.701-122.264c3.763-1.149,7.309-1.731,10.543-1.731c3.07,0,12.845,0.689,13.534,9.297
					C386.977,223.366,350.572,374.19,343.653,388.028z"/>
				<path style="fill:#231F20;" d="M365.016,136.824l-200,115.005c-4.245,2.441-6.098,7.596-4.379,12.18l30,80
					c1.377,3.673,4.774,6.201,8.688,6.466c0.228,0.016,0.453,0.023,0.678,0.023c3.659,0,7.051-2.006,8.803-5.259l34.259-63.623
					l133.873-128.92c3.639-3.503,4.093-9.17,1.06-13.209C374.963,135.449,369.393,134.308,365.016,136.824z M228.064,268.295
					c-0.746,0.719-1.377,1.55-1.868,2.462l-24.563,45.616l-19.289-51.437l122.141-70.234L228.064,268.295z"/>
			</g>
		</g>
	</g>
</g>
<g>
</g>
<g>
</g>
<g>
</g>
<g>
</g>
<g>
</g>
<g>
</g>
<g>
</g>
<g>
</g>
<g>
</g>
<g>
</g>
<g>
</g>
<g>
</g>
<g>
</g>
<g>
</g>
<g>
</g>
</svg>
