<?xml version="1.0" encoding="utf-8"?>
<!-- Generator: Adobe Illustrator 21.1.0, SVG Export Plug-In . SVG Version: 6.00 Build 0)  -->
<svg version="1.1" id="Layer_3" xmlns="http://www.w3.org/2000/svg" xmlns:xlink="http://www.w3.org/1999/xlink" x="0px" y="0px"
	 viewBox="0 0 512 512" style="enable-background:new 0 0 512 512;" xml:space="preserve">
<style type="text/css">
	.st0{fill:#FFAC62;}
</style>
<g>
	<path class="st0" d="M448,88h-24V16c0-4.4-3.6-8-8-8H96c-4.4,0-8,3.6-8,8v72H64c-13.2,0-24,10.8-24,24v240c0,13.2,10.8,24,24,24
		h152v64h-40c-22.1,0-40,17.9-40,40v16c0,4.4,3.6,8,8,8h224c4.4,0,8-3.6,8-8v-16c0-22.1-17.9-40-40-40h-40v-64h152
		c13.2,0,24-10.8,24-24V112C472,98.8,461.2,88,448,88z M104,88h304v176H104V88z M408,24v48H104V24H408z M64,104h24v168
		c0,4.4,3.6,8,8,8h320c4.4,0,8-3.6,8-8V104h24c4.4,0,8,3.6,8,8v184H56V112C56,107.6,59.6,104,64,104z M360,480v8H152v-8
		c0-13.2,10.8-24,24-24h48h64h48C349.2,456,360,466.8,360,480z M280,440h-48v-64h48V440z M448,360H288h-64H64c-4.4,0-8-3.6-8-8v-40
		h400v40C456,356.4,452.4,360,448,360z"/>
	<path class="st0" d="M160,104h-32c-4.4,0-8,3.6-8,8v48c0,4.4,3.6,8,8,8h32c4.4,0,8-3.6,8-8v-48C168,107.6,164.4,104,160,104z
		 M152,152h-16v-32h16V152z"/>
	<rect x="184" y="104" class="st0" width="16" height="64"/>
	<path class="st0" d="M256,104h-32c-4.4,0-8,3.6-8,8v48c0,4.4,3.6,8,8,8h32c4.4,0,8-3.6,8-8v-48C264,107.6,260.4,104,256,104z
		 M248,152h-16v-32h16V152z"/>
	<rect x="280" y="104" class="st0" width="16" height="64"/>
	<path class="st0" d="M160,184h-32c-4.4,0-8,3.6-8,8v48c0,4.4,3.6,8,8,8h32c4.4,0,8-3.6,8-8v-48C168,187.6,164.4,184,160,184z
		 M152,232h-16v-32h16V232z"/>
	<rect x="184" y="184" class="st0" width="16" height="64"/>
	<path class="st0" d="M256,184h-32c-4.4,0-8,3.6-8,8v48c0,4.4,3.6,8,8,8h32c4.4,0,8-3.6,8-8v-48C264,187.6,260.4,184,256,184z
		 M248,232h-16v-32h16V232z"/>
	<rect x="280" y="184" class="st0" width="16" height="64"/>
	<path class="st0" d="M352,104h-32c-4.4,0-8,3.6-8,8v48c0,4.4,3.6,8,8,8h32c4.4,0,8-3.6,8-8v-48C360,107.6,356.4,104,352,104z
		 M344,152h-16v-32h16V152z"/>
	<rect x="376" y="104" class="st0" width="16" height="64"/>
	<path class="st0" d="M352,184h-32c-4.4,0-8,3.6-8,8v48c0,4.4,3.6,8,8,8h32c4.4,0,8-3.6,8-8v-48C360,187.6,356.4,184,352,184z
		 M344,232h-16v-32h16V232z"/>
	<rect x="376" y="184" class="st0" width="16" height="64"/>
	<rect x="224" y="328" class="st0" width="64" height="16"/>
	<rect x="424" y="328" class="st0" width="16" height="16"/>
	<rect x="392" y="328" class="st0" width="16" height="16"/>
	<rect x="120" y="40" class="st0" width="16" height="16"/>
	<rect x="152" y="40" class="st0" width="16" height="16"/>
	<rect x="184" y="40" class="st0" width="16" height="16"/>
</g>
</svg>
