<?xml version="1.0" encoding="utf-8"?>
<!-- Generator: Adobe Illustrator 21.1.0, SVG Export Plug-In . SVG Version: 6.00 Build 0)  -->
<svg version="1.1" id="Слой_1" xmlns="http://www.w3.org/2000/svg" xmlns:xlink="http://www.w3.org/1999/xlink" x="0px" y="0px"
	 viewBox="0 0 512 512" style="enable-background:new 0 0 512 512;" xml:space="preserve">
<style type="text/css">
	.st0{fill:#FFAC62;}
</style>
<path class="st0" d="M170,146.5h-38c-4.1,0-7.5,3.4-7.5,7.5s3.4,7.5,7.5,7.5h38c4.1,0,7.5-3.4,7.5-7.5S174.1,146.5,170,146.5z"/>
<path class="st0" d="M214,146.5h-18c-4.1,0-7.5,3.4-7.5,7.5s3.4,7.5,7.5,7.5h18c4.1,0,7.5-3.4,7.5-7.5S218.2,146.5,214,146.5z"/>
<path class="st0" d="M156.5,180.5c0,4.1,3.4,7.5,7.5,7.5h25c4.1,0,7.5-3.4,7.5-7.5s-3.4-7.5-7.5-7.5h-25
	C159.8,173,156.5,176.4,156.5,180.5z"/>
<path class="st0" d="M201,215.5c4.1,0,7.5-3.4,7.5-7.5s-3.4-7.5-7.5-7.5h-13c-4.1,0-7.5,3.4-7.5,7.5s3.4,7.5,7.5,7.5H201z"/>
<path class="st0" d="M307.1,200.5h-25c-4.1,0-7.5,3.4-7.5,7.5s3.4,7.5,7.5,7.5h25c4.1,0,7.5-3.4,7.5-7.5
	C314.6,203.8,311.2,200.5,307.1,200.5z"/>
<path class="st0" d="M272.1,173h-60c-4.1,0-7.5,3.4-7.5,7.5s3.4,7.5,7.5,7.5h60c4.1,0,7.5-3.4,7.5-7.5S276.2,173,272.1,173z"/>
<path class="st0" d="M259,200.5h-36c-4.1,0-7.5,3.4-7.5,7.5s3.4,7.5,7.5,7.5h36c4.1,0,7.5-3.4,7.5-7.5
	C266.5,203.8,263.2,200.5,259,200.5z"/>
<path class="st0" d="M132,264.5h21c4.1,0,7.5-3.4,7.5-7.5s-3.4-7.5-7.5-7.5h-21c-4.1,0-7.5,3.4-7.5,7.5S127.8,264.5,132,264.5z"/>
<path class="st0" d="M166.5,257c0,4.1,3.4,7.5,7.5,7.5h77c4.1,0,7.5-3.4,7.5-7.5s-3.4-7.5-7.5-7.5h-77
	C169.9,249.5,166.5,252.8,166.5,257z"/>
<path class="st0" d="M156.5,283.5c0,4.1,3.4,7.5,7.5,7.5h73c4.1,0,7.5-3.4,7.5-7.5s-3.4-7.5-7.5-7.5h-73
	C159.8,276,156.5,279.3,156.5,283.5z"/>
<path class="st0" d="M250.5,283.5c0,4.1,3.4,7.5,7.5,7.5h14c4.1,0,7.5-3.4,7.5-7.5s-3.4-7.5-7.5-7.5h-14
	C253.9,276,250.5,279.3,250.5,283.5z"/>
<path class="st0" d="M132,363h38c4.1,0,7.5-3.4,7.5-7.5s-3.4-7.5-7.5-7.5h-38c-4.1,0-7.5,3.4-7.5,7.5S127.8,363,132,363z"/>
<path class="st0" d="M196,363h18c4.1,0,7.5-3.4,7.5-7.5s-3.4-7.5-7.5-7.5h-18c-4.1,0-7.5,3.4-7.5,7.5S191.9,363,196,363z"/>
<path class="st0" d="M156.5,381.9c0,4.1,3.4,7.5,4.5,8.5h25c7.2-1,10.5-4.4,10.5-8.5s-3.4-7.5-7.5-7.5h-25
	C159.8,374.4,156.5,377.8,156.5,381.9z"/>
<path class="st0" d="M188,416.9h13c4.1,0,7.5-3.4,7.5-7.5s-3.4-7.5-7.5-7.5h-13c-4.1,0-7.5,3.4-7.5,7.5S183.9,416.9,188,416.9z"/>
<path class="st0" d="M282.1,416.9h25c4.1,0,7.5-3.4,7.5-7.5s-3.4-7.5-7.5-7.5h-25c-4.1,0-7.5,3.4-7.5,7.5S277.9,416.9,282.1,416.9z"
	/>
<path class="st0" d="M279.6,381.9c0-4.1-3.4-7.5-7.5-7.5h-60c-4.1,0-7.5,3.4-7.5,7.5s3.4,7.5,7.5,7.5h60
	C276.2,389.4,279.6,386.1,279.6,381.9z"/>
<path class="st0" d="M223,401.9c-4.1,0-7.5,3.4-7.5,7.5s3.4,7.5,7.5,7.5h36c4.1,0,7.5-3.4,7.5-7.5s-3.4-7.5-7.5-7.5H223z"/>
<path class="st0" d="M120.1,119.1c-2.7-3.1-7.5-3.5-10.6-0.7l-12.9,11.2c-5.2-4-11.6-6.3-18.6-6.3c-17,0-30.8,13.8-30.8,30.8
	S61,184.9,78,184.9s30.8-13.8,30.8-30.8c0-4.5-1-8.8-2.8-12.7l13.4-11.6C122.5,127,122.8,122.3,120.1,119.1z M78,169.8
	c-8.7,0-15.8-7.1-15.8-15.7c0-8.7,7.1-15.7,15.8-15.7c2.4,0,4.8,0.6,6.8,1.6l-11.7,10.2c-3.1,2.7-3.5,7.5-0.7,10.6
	c1.5,1.7,3.6,2.6,5.7,2.6c1.7,0,3.5-0.6,4.9-1.8l10.7-9.3c0.1,0.6,0.1,1.3,0.1,1.9C93.8,162.7,86.7,169.8,78,169.8z"/>
<path class="st0" d="M78,291c17,0,30.8-13.8,30.8-30.8c0-5-1.2-9.7-3.3-13.9l13.9-12.1c3.1-2.7,3.5-7.5,0.7-10.6
	c-2.7-3.1-7.5-3.5-10.6-0.7L95.6,235c-5-3.5-11-5.5-17.6-5.5c-17,0-30.8,13.8-30.8,30.8S61.1,291,78,291z M78,244.5
	c1.9,0,3.8,0.4,5.5,1l-10.4,9.1c-3.1,2.7-3.5,7.5-0.7,10.6c1.5,1.7,3.6,2.6,5.7,2.6c1.7,0,3.5-0.6,4.9-1.8l10.4-9.1
	c0.2,1.1,0.4,2.2,0.4,3.4c0,8.7-7.1,15.7-15.7,15.7s-15.8-7.1-15.8-15.7C62.3,251.5,69.4,244.5,78,244.5z"/>
<path class="st0" d="M78,389.9c17,0,30.8-13.8,30.8-30.8c0-4.9-1.1-9.5-3.2-13.5l13.7-12c3.1-2.7,3.5-7.5,0.7-10.6
	c-2.7-3.1-7.5-3.5-10.6-0.7l-13.6,11.8c-5-3.6-11.2-5.8-17.9-5.8c-17,0-30.8,13.8-30.8,30.8C47.3,376.1,61.1,389.9,78,389.9z
	 M78,343.4c2.1,0,4.1,0.4,5.9,1.2L73.1,354c-3.1,2.7-3.5,7.5-0.7,10.6c1.5,1.7,3.6,2.6,5.7,2.6c1.7,0,3.5-0.6,4.9-1.8l10.5-9.2
	c0.2,1,0.3,2,0.3,3c0,8.7-7.1,15.8-15.7,15.8c-8.7,0-15.8-7.1-15.8-15.8C62.3,350.5,69.4,343.4,78,343.4z"/>
<path class="st0" d="M45.2,25c-12.1,0-22,9.9-22,22s9.9,22,22,22s22-9.9,22-22S57.4,25,45.2,25z M45.2,54c-3.9,0-7-3.1-7-7
	s3.1-7,7-7s7,3.1,7,7S49.1,54,45.2,54z"/>
<path class="st0" d="M101.3,25c-12.1,0-22,9.9-22,22s9.9,22,22,22s22-9.9,22-22S113.4,25,101.3,25z M101.3,54c-3.9,0-7-3.1-7-7
	s3.1-7,7-7s7,3.1,7,7S105.2,54,101.3,54z"/>
<path class="st0" d="M157.4,25c-12.1,0-22,9.9-22,22s9.9,22,22,22s22-9.9,22-22S169.5,25,157.4,25z M157.4,54c-3.9,0-7-3.1-7-7
	s3.1-7,7-7s7,3.1,7,7S161.2,54,157.4,54z"/>
<path class="st0" d="M466.1,342.8V30.7c0-16.9-13.8-30.7-30.7-30.7H30.7C13.8,0,0,13.8,0,30.7v138.2c0,4.1,3.4,7.5,7.5,7.5
	s7.5-3.4,7.5-7.5V94h436.1v241.8c-9.6-3.5-20-5.4-30.8-5.4c-5.7,0-11.5,0.5-17.1,1.6c-4.1,0.8-6.7,4.7-6,8.8c0.8,4.1,4.7,6.7,8.8,6
	c4.7-0.9,9.5-1.3,14.3-1.3c41.8,0,75.8,34,75.8,75.8s-34,75.8-75.8,75.8s-75.8-34-75.8-75.8c0-21.2,8.9-41.5,24.5-55.8
	c3.1-2.8,3.3-7.6,0.4-10.6s-7.6-3.3-10.6-0.4c-18.7,17.2-29.4,41.5-29.4,66.9c0,10.5,1.8,20.6,5.1,29.9h-304
	c-8.6,0-15.7-7-15.7-15.7V214.8c0-4.1-3.4-7.5-7.5-7.5S0,210.6,0,214.8v220.7c0,16.9,13.8,30.7,30.7,30.7h310.8
	c15.7,27.4,45.1,45.9,78.9,45.9c50.1,0,90.8-40.7,90.8-90.8C511.1,387.8,493,358.6,466.1,342.8z M451.1,79H15V30.7
	C15,22,22,15,30.7,15h404.8c8.6,0,15.7,7,15.7,15.7V79H451.1z"/>
<path class="st0" d="M353.8,432.7c0,3.4,1.3,6.7,3.8,9.1l0.1,0.1l37.4,36.3c2.8,2.8,6.5,4.2,10.2,4.2s7.4-1.4,10.3-4.2l67.2-67.2
	c5.7-5.7,5.7-14.9,0-20.5L465,372.7c-5.7-5.7-14.9-5.7-20.5,0l-39.8,39.8l-8.9-8.9c-2.4-2.4-5.7-3.8-9.1-3.8s-6.7,1.3-9.1,3.8
	l-20,20C355.1,426,353.8,429.3,353.8,432.7z M386.6,415.7l12.7,12.7c2.9,2.9,7.7,2.9,10.6,0l44.8-44.8l17,17l-66.5,66.5l-35.5-34.5
	L386.6,415.7z"/>
</svg>
