<?xml version="1.0" encoding="utf-8"?>
<!-- Generator: Adobe Illustrator 21.1.0, SVG Export Plug-In . SVG Version: 6.00 Build 0)  -->
<svg version="1.1" id="Слой_1" xmlns="http://www.w3.org/2000/svg" xmlns:xlink="http://www.w3.org/1999/xlink" x="0px" y="0px"
	 viewBox="0 0 511 511" style="enable-background:new 0 0 511 511;" xml:space="preserve">
<style type="text/css">
	.st0{fill:#FFAC62;}
</style>
<path class="st0" d="M145.8,34.3c-0.5,0.1-0.9,0.2-1.4,0.4c-0.9,0.4-1.7,0.9-2.4,1.6c-1.4,1.4-2.2,3.3-2.2,5.3c0,0.9,0.2,2,0.6,2.9
	c0.6,1.4,1.5,2.5,2.7,3.4c0.7,0.5,1.8,0.9,2.7,1.1c0.5,0.1,1,0.1,1.5,0.1c1,0,1.9-0.2,2.9-0.6c0.9-0.4,1.7-1,2.4-1.6
	c1-1,1.8-2.4,2-3.8c0.5-2.5-0.2-4.9-2-6.7C150.8,34.5,148.2,33.8,145.8,34.3z"/>
<path class="st0" d="M173.2,34.1c-2,0-3.9,0.8-5.3,2.2c-1.4,1.4-2.2,3.3-2.2,5.3c0,0.5,0.1,1,0.1,1.5c0.3,1.4,1,2.8,2,3.8
	c0.7,0.7,1.6,1.3,2.4,1.6c0.4,0.2,0.9,0.3,1.4,0.4c1.4,0.3,3,0.1,4.3-0.4c0.9-0.4,1.7-0.9,2.4-1.6c0.7-0.7,1.3-1.5,1.6-2.4
	c0.4-0.9,0.6-1.9,0.6-2.9c0-2-0.8-3.9-2.2-5.3C177.1,34.9,175.2,34.1,173.2,34.1z"/>
<path class="st0" d="M199.2,34.1c-2,0-3.9,0.8-5.3,2.2c-1.4,1.4-2.2,3.3-2.2,5.3c0,2.5,1.2,4.8,3.3,6.2c0.4,0.3,0.8,0.5,1.3,0.7
	c0.4,0.2,0.9,0.3,1.4,0.4c0.5,0.1,1,0.1,1.5,0.1c1,0,1.9-0.2,2.8-0.6c1-0.4,1.7-0.9,2.4-1.6c1.4-1.4,2.2-3.3,2.2-5.3
	s-0.8-3.9-2.2-5.3C203.1,34.9,201.1,34.1,199.2,34.1z"/>
<path class="st0" d="M502.8,425.9h-21.5V157.3c0-16.5-13.4-29.9-29.9-29.9H404V32.2C404,13.9,389.1-1,370.8-1H140.5
	c-18.3,0-33.2,14.9-33.2,33.2v95.2H59.9c-16.5,0-29.9,13.4-29.9,29.9v268.6H8.5c-4.1,0-7.5,3.3-7.5,7.5v44.8
	C1,495.7,15.3,510,32.9,510h59.8c4.1,0,7.5-3.3,7.5-7.5s-3.3-7.5-7.5-7.5H32.9c-9.3,0-17-7.6-17-17v-37.3h151.8l9.7,22.3
	c2,4.5,6.5,7.5,11.4,7.5h133.6c5,0,9.4-2.9,11.4-7.5l9.7-22.3h151.8V478c0,9.3-7.6,17-17,17H138.7c-4.1,0-7.5,3.3-7.5,7.5
	s3.3,7.5,7.5,7.5h339.7c17.6,0,31.9-14.3,31.9-31.9v-44.8C510.3,429.2,507,425.9,502.8,425.9z M122.3,32.2
	c0-10.1,8.2-18.2,18.2-18.2h230.3c10.1,0,18.2,8.2,18.2,18.2v36.9H122.3V32.2z M69.3,178.5v247.4H44.9V157.3
	c0-8.2,6.7-14.9,14.9-14.9h47.5v20.4H85C76.3,162.8,69.3,169.8,69.3,178.5z M320.8,455.6H190.5l-6.5-14.8h143.3L320.8,455.6z
	 M427.1,425.9H84.2V178.5c0-0.4,0.4-0.8,0.8-0.8h22.3v122.8c0,18.3,14.9,33.2,33.2,33.2h230.3c18.3,0,33.2-14.9,33.2-33.2v-19.8
	c0-4.1-3.3-7.5-7.5-7.5c-4.1,0-7.5,3.3-7.5,7.5v19.8c0,10.1-8.2,18.2-18.2,18.2H140.5c-10.1,0-18.2-8.2-18.2-18.2V84H389v149.7
	c0,4.1,3.3,7.5,7.5,7.5s7.5-3.3,7.5-7.5v-56h22.3c0.4,0,0.8,0.4,0.8,0.8L427.1,425.9L427.1,425.9z M466.4,425.9H442V178.5
	c0-8.7-7-15.7-15.7-15.7H404v-20.4h47.5c8.2,0,14.9,6.7,14.9,14.9V425.9z"/>
<path class="st0" d="M116.2,366.2H218c4.1,0,7.5-3.3,7.5-7.5s-3.3-7.5-7.5-7.5H116.2c-4.1,0-7.5,3.3-7.5,7.5
	S112.1,366.2,116.2,366.2z"/>
<path class="st0" d="M245.5,366.2h42.3c4.1,0,7.5-3.3,7.5-7.5s-3.3-7.5-7.5-7.5h-42.3c-4.1,0-7.5,3.3-7.5,7.5
	S241.4,366.2,245.5,366.2z"/>
<path class="st0" d="M395.1,351.3h-79.6c-4.1,0-7.5,3.3-7.5,7.5s3.3,7.5,7.5,7.5h79.6c4.1,0,7.5-3.3,7.5-7.5
	S399.3,351.3,395.1,351.3z"/>
<path class="st0" d="M167.3,382.1h-51.1c-4.1,0-7.5,3.3-7.5,7.5s3.3,7.5,7.5,7.5h51.1c4.1,0,7.5-3.3,7.5-7.5
	S171.4,382.1,167.3,382.1z"/>
<path class="st0" d="M315.6,382.1H203.1c-4.1,0-7.5,3.3-7.5,7.5s3.3,7.5,7.5,7.5h112.5c4.1,0,7.5-3.3,7.5-7.5
	S319.7,382.1,315.6,382.1z"/>
<path class="st0" d="M395.1,382.1h-56.4c-4.1,0-7.5,3.3-7.5,7.5s3.3,7.5,7.5,7.5h56.4c4.1,0,7.5-3.3,7.5-7.5
	S399.3,382.1,395.1,382.1z"/>
<path class="st0" d="M193.1,168c0,17.8,13.3,24.7,22.3,25c0.1,0,0.2,0,0.2,0c4,0,7.3-3.2,7.5-7.2c0.1-4.1-3.1-7.6-7.2-7.7
	c0,0-2.1-0.2-4-1.3c-1.7-1-3.9-3-3.9-8.7v-10.5c0-2.5-1.2-4.8-3.3-6.2l-4.7-3.1l4.7-3.1c2.1-1.4,3.3-3.7,3.3-6.2v-10.5
	c0-3.6,1.3-7.1,4.5-8.9c1.2-0.7,2.5-1,3.8-1.1c3.8-0.4,6.7-3.5,6.7-7.3v-0.4c0-4-3.3-7.3-7.3-7.3h-0.4c-9,0.3-22.3,7.2-22.3,25v6.6
	l-7.1,4.8c-3.5,2.3-5.3,6.6-4.3,10.9c0.6,2.6,2.3,4.9,4.5,6.3l6.9,4.7L193.1,168L193.1,168z"/>
<path class="st0" d="M295,118.3c1.3,0.1,2.6,0.5,3.8,1.1c3.2,1.8,4.5,5.3,4.5,8.9v10.5c0,2.5,1.2,4.8,3.3,6.2l4.7,3.1l-4.7,3.1
	c-2.1,1.4-3.3,3.7-3.3,6.2V168c0,5.7-2.2,7.7-3.9,8.7c-1.9,1.1-3.9,1.3-4,1.3c-4.1,0.1-7.4,3.6-7.2,7.7c0.1,4,3.4,7.2,7.5,7.2
	c0.1,0,0.2,0,0.2,0c9-0.3,22.3-7.2,22.3-25v-6.6l6.9-4.7c2.2-1.5,3.9-3.7,4.5-6.3c1-4.3-0.8-8.5-4.3-10.9l-7.1-4.8V128
	c0-17.8-13.3-24.7-22.3-24.9h-0.4c-4,0-7.3,3.3-7.3,7.3v0.4C288.2,114.8,291.2,117.9,295,118.3z"/>
<path class="st0" d="M168.2,206.7h-20.9c-4.1,0-7.5,3.3-7.5,7.5c0,4.1,3.3,7.5,7.5,7.5h20.9c4.1,0,7.5-3.3,7.5-7.5
	C175.6,210,172.3,206.7,168.2,206.7z"/>
<path class="st0" d="M364.1,206.7H199.7c-4.1,0-7.5,3.3-7.5,7.5c0,4.1,3.3,7.5,7.5,7.5H364c4.1,0,7.5-3.3,7.5-7.5
	C371.6,210,368.2,206.7,364.1,206.7z"/>
<path class="st0" d="M168.2,240.8h-20.9c-4.1,0-7.5,3.3-7.5,7.5c0,4.1,3.3,7.5,7.5,7.5h20.9c4.1,0,7.5-3.3,7.5-7.5
	C175.6,244.2,172.3,240.8,168.2,240.8z"/>
<path class="st0" d="M364.1,240.8H199.7c-4.1,0-7.5,3.3-7.5,7.5c0,4.1,3.3,7.5,7.5,7.5H364c4.1,0,7.5-3.3,7.5-7.5
	C371.6,244.2,368.2,240.8,364.1,240.8z"/>
<path class="st0" d="M168.2,275h-20.9c-4.1,0-7.5,3.3-7.5,7.5c0,4.1,3.3,7.5,7.5,7.5h20.9c4.1,0,7.5-3.3,7.5-7.5
	C175.6,278.4,172.3,275,168.2,275z"/>
<path class="st0" d="M364.1,275H199.7c-4.1,0-7.5,3.3-7.5,7.5c0,4.1,3.3,7.5,7.5,7.5H364c4.1,0,7.5-3.3,7.5-7.5
	C371.6,278.4,368.2,275,364.1,275z"/>
<path class="st0" d="M222.8,166.5c0.6,1.4,1.5,2.5,2.7,3.4c0.8,0.5,1.8,0.9,2.7,1.1c0.5,0.1,1,0.1,1.5,0.1c1,0,1.9-0.2,2.9-0.6
	c0.9-0.4,1.7-1,2.4-1.6c1-1,1.8-2.4,2-3.8c0.5-2.5-0.2-4.9-2-6.7c-1.7-1.7-4.3-2.5-6.7-2c-0.5,0.1-0.9,0.2-1.4,0.4
	c-0.9,0.4-1.7,0.9-2.4,1.6c-1.4,1.4-2.2,3.3-2.2,5.3C222.2,164.6,222.4,165.7,222.8,166.5z"/>
<path class="st0" d="M250.4,169c0.7,0.7,1.6,1.3,2.4,1.6c0.4,0.2,0.9,0.3,1.4,0.4c1.4,0.3,3,0.1,4.3-0.4c0.9-0.4,1.7-0.9,2.4-1.6
	c0.7-0.7,1.3-1.5,1.6-2.4c0.4-0.9,0.6-1.9,0.6-2.9c0-2-0.8-3.9-2.2-5.3c-1.4-1.4-3.3-2.2-5.3-2.2c-2,0-3.9,0.8-5.3,2.2
	c-1.4,1.4-2.2,3.3-2.2,5.3c0,0.5,0.1,1,0.1,1.5C248.6,166.6,249.3,167.9,250.4,169z"/>
<path class="st0" d="M277.5,169.9c0.4,0.3,0.8,0.5,1.3,0.7c0.4,0.2,0.9,0.3,1.4,0.4c0.5,0.1,1,0.1,1.5,0.1c1,0,1.9-0.2,2.8-0.6
	c1-0.4,1.7-0.9,2.4-1.6c1.4-1.4,2.2-3.3,2.2-5.3s-0.8-3.9-2.2-5.3c-1.4-1.4-3.3-2.2-5.3-2.2s-3.9,0.8-5.3,2.2s-2.2,3.3-2.2,5.3
	C274.2,166.2,275.4,168.5,277.5,169.9z"/>
</svg>
