<?xml version="1.0" encoding="utf-8"?>
<!-- Generator: Adobe Illustrator 21.1.0, SVG Export Plug-In . SVG Version: 6.00 Build 0)  -->
<svg version="1.1" id="Слой_1" xmlns="http://www.w3.org/2000/svg" xmlns:xlink="http://www.w3.org/1999/xlink" x="0px" y="0px"
	 viewBox="0 0 511 511" style="enable-background:new 0 0 511 511;" xml:space="preserve">
<style type="text/css">
	.st0{fill:#FFAC62;}
</style>
<path class="st0" d="M58.8,187.2c1.5,1.5,3.4,2.2,5.3,2.2c1.9,0,3.8-0.7,5.3-2.2c2.9-2.9,2.9-7.7,0-10.6l-18.2-18.2l18.2-18.2
	c2.9-2.9,2.9-7.7,0-10.6c-2.9-2.9-7.7-2.9-10.6,0L35.4,153c-1.4,1.4-2.2,3.3-2.2,5.3s0.8,3.9,2.2,5.3L58.8,187.2z"/>
<path class="st0" d="M133.1,158.4l-18.2,18.2c-2.9,2.9-2.9,7.7,0,10.6c1.5,1.5,3.4,2.2,5.3,2.2s3.8-0.7,5.3-2.2l23.5-23.5
	c2.9-2.9,2.9-7.7,0-10.6l-23.5-23.5c-2.9-2.9-7.7-2.9-10.6,0c-2.9,2.9-2.9,7.7,0,10.6L133.1,158.4z"/>
<path class="st0" d="M81,188.9c0.9,0.4,1.8,0.5,2.7,0.5c3,0,5.8-1.8,7-4.7l18.4-46.9c1.5-3.8-0.4-8.2-4.2-9.7
	c-3.8-1.5-8.2,0.4-9.7,4.2l-18.4,46.9C75.3,183,77.2,187.3,81,188.9z"/>
<path class="st0" d="M44.9,233.2h50.4c4.1,0,7.5-3.3,7.5-7.5c0-4.1-3.3-7.5-7.5-7.5H44.9c-4.1,0-7.5,3.3-7.5,7.5
	S40.8,233.2,44.9,233.2z"/>
<path class="st0" d="M211.3,218.3h-88.6c-4.1,0-7.5,3.3-7.5,7.5c0,4.1,3.3,7.5,7.5,7.5h88.6c4.1,0,7.5-3.3,7.5-7.5
	S215.5,218.3,211.3,218.3z"/>
<path class="st0" d="M44.9,264.8h21.5c4.1,0,7.5-3.3,7.5-7.5c0-4.1-3.3-7.5-7.5-7.5H44.9c-4.1,0-7.5,3.3-7.5,7.5
	C37.4,261.4,40.8,264.8,44.9,264.8z"/>
<path class="st0" d="M184,249.8c-4.1,0-7.5,3.3-7.5,7.5c0,4.1,3.3,7.5,7.5,7.5h13c4.1,0,7.5-3.3,7.5-7.5c0-4.1-3.3-7.5-7.5-7.5
	L184,249.8L184,249.8z"/>
<path class="st0" d="M164.3,257.3c0-4.1-3.3-7.5-7.5-7.5H92.6c-4.1,0-7.5,3.3-7.5,7.5c0,4.1,3.3,7.5,7.5,7.5h64.2
	C160.9,264.8,164.3,261.4,164.3,257.3z"/>
<path class="st0" d="M213.3,257.3c0,4.1,3.3,7.5,7.5,7.5h24.5c4.1,0,7.5-3.3,7.5-7.5c0-4.1-3.3-7.5-7.5-7.5h-24.5
	C216.6,249.8,213.3,253.2,213.3,257.3z"/>
<path class="st0" d="M172.6,164.4h25.8c4.1,0,7.5-3.3,7.5-7.5c0-4.1-3.3-7.5-7.5-7.5h-25.8c-4.1,0-7.5,3.3-7.5,7.5
	C165.1,161.1,168.4,164.4,172.6,164.4z"/>
<path class="st0" d="M227.3,164.4h157.5c4.1,0,7.5-3.3,7.5-7.5c0-4.1-3.3-7.5-7.5-7.5H227.3c-4.1,0-7.5,3.3-7.5,7.5
	C219.8,161.1,223.2,164.4,227.3,164.4z"/>
<path class="st0" d="M360.9,182.4h-63.8c-4.1,0-7.5,3.3-7.5,7.5c0,4.1,3.3,7.5,7.5,7.5h63.8c4.1,0,7.5-3.3,7.5-7.5
	S365,182.4,360.9,182.4z"/>
<path class="st0" d="M273.2,182.4h-21.9c-4.1,0-7.5,3.3-7.5,7.5c0,4.1,3.3,7.5,7.5,7.5h21.9c4.1,0,7.5-3.3,7.5-7.5
	C280.6,185.7,277.3,182.4,273.2,182.4z"/>
<path class="st0" d="M172.6,197.3h53.7c4.1,0,7.5-3.3,7.5-7.5c0-4.1-3.3-7.5-7.5-7.5h-53.7c-4.1,0-7.5,3.3-7.5,7.5
	S168.4,197.3,172.6,197.3z"/>
<path class="st0" d="M156.9,281.1h-50.4c-4.1,0-7.5,3.3-7.5,7.5c0,4.1,3.3,7.5,7.5,7.5h50.4c4.1,0,7.5-3.3,7.5-7.5
	C164.4,284.5,161,281.1,156.9,281.1z"/>
<path class="st0" d="M83.6,281.1H44.9c-4.1,0-7.5,3.3-7.5,7.5c0,4.1,3.3,7.5,7.5,7.5h38.7c4.1,0,7.5-3.3,7.5-7.5
	C91.1,284.5,87.8,281.1,83.6,281.1z"/>
<path class="st0" d="M248.2,281.1h-65.8c-4.1,0-7.5,3.3-7.5,7.5c0,4.1,3.3,7.5,7.5,7.5h65.8c4.1,0,7.5-3.3,7.5-7.5
	C255.7,284.5,252.4,281.1,248.2,281.1z"/>
<path class="st0" d="M337.2,242.7h-36c-4.1,0-7.5,3.3-7.5,7.5c0,4.1,3.3,7.5,7.5,7.5h36c4.1,0,7.5-3.3,7.5-7.5
	C344.7,246,341.4,242.7,337.2,242.7z"/>
<path class="st0" d="M399.7,257.7h50.8c4.1,0,7.5-3.3,7.5-7.5c0-4.1-3.3-7.5-7.5-7.5h-50.8c-4.1,0-7.5,3.3-7.5,7.5
	C392.2,254.3,395.6,257.7,399.7,257.7z"/>
<path class="st0" d="M374.3,242.7h-11.6c-4.1,0-7.5,3.3-7.5,7.5c0,4.1,3.3,7.5,7.5,7.5h11.6c4.1,0,7.5-3.3,7.5-7.5
	C381.8,246,378.4,242.7,374.3,242.7z"/>
<path class="st0" d="M301.3,339.1h36c4.1,0,7.5-3.3,7.5-7.5c0-4.1-3.3-7.5-7.5-7.5h-36c-4.1,0-7.5,3.3-7.5,7.5
	C293.8,335.8,297.1,339.1,301.3,339.1z"/>
<path class="st0" d="M399.7,339.1h50.8c4.1,0,7.5-3.3,7.5-7.5c0-4.1-3.3-7.5-7.5-7.5h-50.8c-4.1,0-7.5,3.3-7.5,7.5
	C392.2,335.8,395.6,339.1,399.7,339.1z"/>
<path class="st0" d="M362.6,339.1h11.6c4.1,0,7.5-3.3,7.5-7.5c0-4.1-3.3-7.5-7.5-7.5h-11.6c-4.1,0-7.5,3.3-7.5,7.5
	C355.2,335.8,358.5,339.1,362.6,339.1z"/>
<path class="st0" d="M337.2,405.7h-36c-4.1,0-7.5,3.3-7.5,7.5c0,4.1,3.3,7.5,7.5,7.5h36c4.1,0,7.5-3.3,7.5-7.5
	S341.4,405.7,337.2,405.7z"/>
<path class="st0" d="M450.5,405.7h-50.8c-4.1,0-7.5,3.3-7.5,7.5c0,4.1,3.3,7.5,7.5,7.5h50.8c4.1,0,7.5-3.3,7.5-7.5
	S454.6,405.7,450.5,405.7z"/>
<path class="st0" d="M374.3,405.7h-11.6c-4.1,0-7.5,3.3-7.5,7.5c0,4.1,3.3,7.5,7.5,7.5h11.6c4.1,0,7.5-3.3,7.5-7.5
	S378.4,405.7,374.3,405.7z"/>
<path class="st0" d="M478.1,1H32.9C14.8,1,0,15.8,0,33.9v361.9c0,18.1,14.8,32.9,32.9,32.9H61c4.1,0,7.5-3.3,7.5-7.5
	c0-4.1-3.3-7.5-7.5-7.5H32.9c-9.9,0-18-8.1-18-18v-28.4h272.5v12.9h-5.9c-8.1,0-14.7,6.6-14.7,14.7v18.7H106.5
	c-4.1,0-7.5,3.3-7.5,7.5c0,4.1,3.3,7.5,7.5,7.5h71.9v26.8h-22.6c-15.1,0-27.3,12.3-27.3,27.3V499c0,6.9,5.6,12.5,12.5,12.5h228.4
	c6.9,0,12.5-5.6,12.5-12.5v-16.2c0-15.1-12.3-27.3-27.3-27.3H332V446h138.3c8.1,0,14.7-6.6,14.7-14.7v-3.5
	c14.6-3.4,25.5-16.5,25.5-32.1L511,33.9C511,15.8,496.2,1,478.1,1z M281.7,349.6v-35.8H470v35.8H281.7z M302.4,298.8v-15.7h147v15.7
	H302.4z M449.4,364.6v15.7h-147v-15.7H449.4z M193.4,428.7h73.4v2.7c0,8.1,6.6,14.7,14.7,14.7H317v9.5H193.4V428.7z M354.6,470.5
	c6.8,0,12.4,5.5,12.4,12.4v13.7H143.5v-13.7c0-6.8,5.5-12.4,12.4-12.4H354.6z M470,431.1H281.7v-35.8H470V431.1z M495.5,395.8
	c0,7.2-4.3,13.5-10.5,16.3V395c0-8.1-6.6-14.7-14.7-14.7h-5.9v-12.9h31.2v28.4H495.5z M495.5,352.4h-10.8c0.2-0.8,0.2-38.9,0.2-38.9
	c0-8.1-6.6-14.7-14.7-14.7h-5.9v-15.7h5.9c8.1,0,14.7-6.6,14.7-14.7V232c0-8.1-6.6-14.7-14.7-14.7H428c-4.1,0-7.5,3.3-7.5,7.5
	c0,4.1,3.3,7.5,7.5,7.5h42v35.8H281.7v-35.8h99.7c4.1,0,7.5-3.3,7.5-7.5c0-4.1-3.3-7.5-7.5-7.5h-100c-8.1,0-14.7,6.6-14.7,14.7v36.3
	c0,8.1,6.6,14.7,14.7,14.7h5.9v15.7h-5.9c-8.1,0-14.7,6.6-14.7,14.7c0,0,0.1,38.1,0.2,38.9H15V102.7h480.5V352.4z M495.5,87.8h-480
	V33.9c0-9.9,8.1-18,18-18h444.1c9.9,0,18,8.1,18,18v53.9H495.5z"/>
<path class="st0" d="M55.2,29.7c-12.1,0-21.9,9.8-21.9,21.9s9.8,21.9,21.9,21.9s21.9-9.8,21.9-21.9S67.3,29.7,55.2,29.7z M55.2,58.6
	c-3.9,0-7-3.1-7-7s3.1-7,7-7s7,3.1,7,7C62.1,55.5,59,58.6,55.2,58.6z"/>
<path class="st0" d="M111,29.7c-12.1,0-21.9,9.8-21.9,21.9s9.8,21.9,21.9,21.9s22-9.8,22-21.9S123.1,29.7,111,29.7z M111,58.6
	c-3.9,0-7-3.1-7-7s3.1-7,7-7s7,3.1,7,7S114.9,58.6,111,58.6z"/>
<path class="st0" d="M166.9,29.7c-12.1,0-21.9,9.8-21.9,21.9s9.8,21.9,21.9,21.9s21.9-9.8,21.9-21.9S179,29.7,166.9,29.7z
	 M166.9,58.6c-3.9,0-7-3.1-7-7s3.1-7,7-7s7,3.1,7,7S170.8,58.6,166.9,58.6z"/>
</svg>
