<?xml version="1.0" encoding="utf-8"?>
<!-- Generator: Adobe Illustrator 21.1.0, SVG Export Plug-In . SVG Version: 6.00 Build 0)  -->
<svg version="1.1" id="Слой_1" xmlns="http://www.w3.org/2000/svg" xmlns:xlink="http://www.w3.org/1999/xlink" x="0px" y="0px"
	 viewBox="0 0 512 512" style="enable-background:new 0 0 512 512;" xml:space="preserve">
<style type="text/css">
	.st0{fill:#FFAC62;}
</style>
<path class="st0" d="M504.5,38.3c-2.3,0-4.6-1-6-3l-11.4-15.4l-12,15.5c-2.5,3.3-7.2,3.9-10.5,1.3c-3.3-2.5-3.9-7.2-1.3-10.5
	l18-23.3c1.4-1.8,3.6-2.9,5.9-2.9h0.1c2.3,0,4.6,1.1,5.9,3l17.3,23.3c2.5,3.3,1.8,8-1.6,10.5C507.6,37.8,506.1,38.3,504.5,38.3z"/>
<path class="st0" d="M63.5,307.6c-10.2,0-18.5,8.3-18.5,18.5v56.4c0,10.2,8.3,18.5,18.5,18.5H127c10.2,0,18.5-8.3,18.5-18.5v-56.4
	c0-10.2-8.3-18.5-18.5-18.5H63.5z M130.4,326.1v56.4c0,1.9-1.6,3.5-3.5,3.5H63.5c-1.9,0-3.5-1.6-3.5-3.5v-56.4
	c0-1.9,1.6-3.5,3.5-3.5H127C128.8,322.6,130.4,324.2,130.4,326.1z"/>
<path class="st0" d="M193.3,307.6c-10.2,0-18.5,8.3-18.5,18.5v56.4c0,10.2,8.3,18.5,18.5,18.5h63.5c10.2,0,18.5-8.3,18.5-18.5v-56.4
	c0-10.2-8.3-18.5-18.5-18.5H193.3z M260.2,326.1v56.4c0,1.9-1.6,3.5-3.5,3.5h-63.5c-1.9,0-3.5-1.6-3.5-3.5v-56.4
	c0-1.9,1.6-3.5,3.5-3.5h63.5C258.6,322.6,260.2,324.2,260.2,326.1z"/>
<path class="st0" d="M386.5,307.6H323c-10.2,0-18.5,8.3-18.5,18.5v56.4c0,10.2,8.3,18.5,18.5,18.5h63.5c10.2,0,18.5-8.3,18.5-18.5
	v-56.4C405,315.9,396.7,307.6,386.5,307.6z M390,382.5c0,1.9-1.6,3.5-3.5,3.5H323c-1.9,0-3.5-1.6-3.5-3.5v-56.4
	c0-1.9,1.6-3.5,3.5-3.5h63.5c1.9,0,3.5,1.5,3.5,3.5V382.5z"/>
<path class="st0" d="M400,177.7c4.1,0,7.5-3.4,7.5-7.5v-30.7c0-11.4-9.3-20.7-20.7-20.7H63.2c-11.4,0-20.7,9.3-20.7,20.7v111.8
	c0,11.4,9.3,20.7,20.7,20.7h323.5c11.4,0,20.7-9.3,20.7-20.7V217c0-4.1-3.4-7.5-7.5-7.5s-7.5,3.4-7.5,7.5v34.3
	c0,3.1-2.6,5.7-5.7,5.7h-27.3l-63.6-71.6c-2.4-2.7-5.7-4.2-9.3-4.3c-3.5-0.1-7,1.3-9.5,3.8l-32.5,32.5L200,167.2
	c-2.4-2.7-5.7-4.2-9.3-4.3c-3.5-0.1-7,1.3-9.5,3.8L90.7,257H63.2c-3.1,0-5.7-2.6-5.7-5.7V139.6c0-3.1,2.6-5.7,5.7-5.7h323.5
	c3.1,0,5.7,2.6,5.7,5.7v30.7C392.5,174.4,395.8,177.7,400,177.7z M190.3,178.7l60.8,68.5c2.8,3.1,7.5,3.4,10.6,0.6s3.4-7.5,0.6-10.6
	l-7.7-8.7l31.6-31.5l53.3,60H111.9L190.3,178.7z"/>
<path class="st0" d="M311.7,479.3h-27c-4.1,0-7.5,3.4-7.5,7.5s3.4,7.5,7.5,7.5h27c4.1,0,7.5-3.4,7.5-7.5
	C319.2,482.7,315.9,479.3,311.7,479.3z"/>
<path class="st0" d="M419.8,479.3h-27c-4.1,0-7.5,3.4-7.5,7.5s3.4,7.5,7.5,7.5h27c4.1,0,7.5-3.4,7.5-7.5
	C427.3,482.7,423.9,479.3,419.8,479.3z"/>
<path class="st0" d="M257.7,479.3h-27c-4.1,0-7.5,3.4-7.5,7.5s3.4,7.5,7.5,7.5h27c4.1,0,7.5-3.4,7.5-7.5
	C265.2,482.7,261.9,479.3,257.7,479.3z"/>
<path class="st0" d="M365.7,479.3h-27c-4.1,0-7.5,3.4-7.5,7.5s3.4,7.5,7.5,7.5h27c4.1,0,7.5-3.4,7.5-7.5
	C373.2,482.7,369.9,479.3,365.7,479.3z"/>
<path class="st0" d="M149.7,479.3h-27c-4.1,0-7.5,3.4-7.5,7.5s3.4,7.5,7.5,7.5h27c4.1,0,7.5-3.4,7.5-7.5
	C157.2,482.7,153.8,479.3,149.7,479.3z"/>
<path class="st0" d="M41.7,479.3H29.2l6.1-4.5c3.3-2.5,4-7.2,1.6-10.5c-2.5-3.3-7.2-4-10.5-1.6L3,480.1c-1.9,1.4-3,3.6-3,5.9
	s1.1,4.6,2.9,6l23.3,18c1.4,1.1,3,1.6,4.6,1.6c2.2,0,4.5-1,5.9-2.9c2.5-3.3,1.9-8-1.3-10.5l-5-3.9h11.3c4.1,0,7.5-3.4,7.5-7.5
	S45.8,479.3,41.7,479.3z"/>
<path class="st0" d="M95.7,479.3h-27c-4.1,0-7.5,3.4-7.5,7.5s3.4,7.5,7.5,7.5h27c4.1,0,7.5-3.4,7.5-7.5
	C103.2,482.7,99.8,479.3,95.7,479.3z"/>
<path class="st0" d="M470.5,478.1c-1.9,0.8-3.9,1.3-6,1.3h-17.7c-4.1,0-7.5,3.4-7.5,7.5s3.4,7.5,7.5,7.5h17.7c4.2,0,8.2-0.9,12-2.5
	c3.8-1.7,5.5-6.1,3.8-9.9C478.7,478.1,474.3,476.4,470.5,478.1z"/>
<path class="st0" d="M203.7,479.3h-27c-4.1,0-7.5,3.4-7.5,7.5s3.4,7.5,7.5,7.5h27c4.1,0,7.5-3.4,7.5-7.5
	C211.2,482.7,207.9,479.3,203.7,479.3z"/>
<path class="st0" d="M486.8,320.8c-4.1,0-7.5,3.4-7.5,7.5v27c0,4.1,3.4,7.5,7.5,7.5s7.5-3.4,7.5-7.5v-27
	C494.3,324.2,491,320.8,486.8,320.8z"/>
<path class="st0" d="M486.8,428.8c-4.1,0-7.5,3.4-7.5,7.5v27c0,4.1,3.4,7.5,7.5,7.5s7.5-3.4,7.5-7.5v-27
	C494.3,432.2,491,428.8,486.8,428.8z"/>
<path class="st0" d="M486.8,104.8c-4.1,0-7.5,3.4-7.5,7.5v27c0,4.1,3.4,7.5,7.5,7.5s7.5-3.4,7.5-7.5v-27
	C494.3,108.1,491,104.8,486.8,104.8z"/>
<path class="st0" d="M486.8,50.8c-4.1,0-7.5,3.4-7.5,7.5v27c0,4.1,3.4,7.5,7.5,7.5s7.5-3.4,7.5-7.5v-27
	C494.3,54.1,491,50.8,486.8,50.8z"/>
<path class="st0" d="M486.8,0c-4.1,0-7.5,3.4-7.5,7.5v23.7c0,4.1,3.4,7.5,7.5,7.5s7.5-3.4,7.5-7.5V7.5C494.3,3.4,491,0,486.8,0z"/>
<path class="st0" d="M486.8,158.8c-4.1,0-7.5,3.4-7.5,7.5v27c0,4.1,3.4,7.5,7.5,7.5s7.5-3.4,7.5-7.5v-27
	C494.3,162.1,491,158.8,486.8,158.8z"/>
<path class="st0" d="M486.8,374.8c-4.1,0-7.5,3.4-7.5,7.5v27c0,4.1,3.4,7.5,7.5,7.5s7.5-3.4,7.5-7.5v-27
	C494.3,378.2,491,374.8,486.8,374.8z"/>
<path class="st0" d="M486.8,266.8c-4.1,0-7.5,3.4-7.5,7.5v27c0,4.1,3.4,7.5,7.5,7.5s7.5-3.4,7.5-7.5v-27
	C494.3,270.2,491,266.8,486.8,266.8z"/>
<path class="st0" d="M486.8,212.8c-4.1,0-7.5,3.4-7.5,7.5v27c0,4.1,3.4,7.5,7.5,7.5s7.5-3.4,7.5-7.5v-27
	C494.3,216.1,491,212.8,486.8,212.8z"/>
<path class="st0" d="M29.8,450h390.3c16.4,0,29.8-13.4,29.8-29.8V29.8C450,13.4,436.6,0,420.2,0H29.8C13.4,0,0,13.4,0,29.8v129.5
	c0,4.1,3.4,7.5,7.5,7.5s7.5-3.4,7.5-7.5V91.2h420v329c0,8.2-6.7,14.8-14.8,14.8H29.8c-8.2,0-14.8-6.7-14.8-14.8V205.3
	c0-4.1-3.4-7.5-7.5-7.5S0,201.2,0,205.3v214.8C0,436.6,13.4,450,29.8,450z M15,76.2V29.8C15,21.7,21.7,15,29.8,15h390.3
	c8.2,0,14.8,6.7,14.8,14.8v46.3L15,76.2L15,76.2z"/>
<path class="st0" d="M64.5,23.6c-12.1,0-22,9.9-22,22s9.9,22,22,22s22-9.9,22-22C86.6,33.5,76.7,23.6,64.5,23.6z M64.5,52.6
	c-3.9,0-7-3.1-7-7s3.1-7,7-7s7,3.1,7,7S68.4,52.6,64.5,52.6z"/>
<path class="st0" d="M120.6,23.6c-12.1,0-22,9.9-22,22s9.9,22,22,22s22-9.9,22-22S132.7,23.6,120.6,23.6z M120.6,52.6
	c-3.9,0-7-3.1-7-7s3.1-7,7-7s7,3.1,7,7S124.4,52.6,120.6,52.6z"/>
<path class="st0" d="M176.6,23.6c-12.1,0-22,9.9-22,22s9.9,22,22,22s22-9.9,22-22S188.8,23.6,176.6,23.6z M176.6,52.6
	c-3.9,0-7-3.1-7-7s3.1-7,7-7s7,3.1,7,7S180.5,52.6,176.6,52.6z"/>
</svg>
