<?xml version="1.0" encoding="utf-8"?>
<!-- Generator: Adobe Illustrator 21.1.0, SVG Export Plug-In . SVG Version: 6.00 Build 0)  -->
<svg version="1.1" id="Слой_1" xmlns="http://www.w3.org/2000/svg" xmlns:xlink="http://www.w3.org/1999/xlink" x="0px" y="0px"
	 viewBox="0 0 480 480" style="enable-background:new 0 0 480 480;" xml:space="preserve">
<style type="text/css">
	.st0{fill:#FFAC62;}
</style>
<path class="st0" d="M440,0H40C17.9,0,0,17.9,0,40v400c0,22.1,17.9,40,40,40h400c22.1,0,40-17.9,40-40V40C480,17.9,462.1,0,440,0z
	 M40,16h400c13.3,0,24,10.7,24,24v24H16V40C16,26.7,26.7,16,40,16z M440,464H40c-13.3,0-24-10.7-24-24V80h448v360
	C464,453.3,453.3,464,440,464z"/>
<path class="st0" d="M48,32h16v16H48V32z"/>
<path class="st0" d="M80,32h16v16H80V32z"/>
<path class="st0" d="M112,32h16v16h-16V32z"/>
<path class="st0" d="M168,32h240v16H168V32z"/>
<path class="st0" d="M392,128c-22.1,0-40,17.9-40,40v208c0,2.1,0.9,4.1,2.4,5.6l24,24c1.5,1.5,3.5,2.4,5.6,2.4v16c0,4.4,3.6,8,8,8
	s8-3.6,8-8v-16c2.1,0,4.2-0.8,5.7-2.3l24-24c1.5-1.5,2.3-3.5,2.3-5.7V168C432,145.9,414.1,128,392,128z M384,232v116l-16,12V216h48
	v144l-16-12V232H384z M416,200h-48v-8h48V200z M392,144c13.3,0,24,10.7,24,24v8h-48v-8C368,154.7,378.7,144,392,144z M396.7,392
	h-9.4l-15.1-15.1L392,362l19.8,14.9L396.7,392z"/>
<path class="st0" d="M328,248h-28.8c-2.2-7.3-5.1-14.4-8.8-21.2l20.3-20.3c3.1-3.1,3.1-8.2,0-11.3l-34-33.9c-3.1-3.1-8.2-3.1-11.3,0
	l-20.3,20.3c-6.7-3.7-13.8-6.6-21.2-8.8V144c0-4.4-3.6-8-8-8h-48c-4.4,0-8,3.6-8,8v28.8c-7.3,2.2-14.5,5.1-21.2,8.8l-20.3-20.3
	c-3.1-3.1-8.2-3.1-11.3,0l-34,33.9c-3.1,3.1-3.1,8.2,0,11.3l20.3,20.3c-3.7,6.7-6.6,13.8-8.8,21.2H56c-4.4,0-8,3.6-8,8v48
	c0,4.4,3.6,8,8,8h28.8c2.2,7.3,5.1,14.4,8.8,21.2l-20.4,20.3c-3.1,3.1-3.1,8.2,0,11.3l34,33.9c3.1,3.1,8.2,3.1,11.3,0l20.3-20.3
	c6.7,3.7,13.8,6.6,21.2,8.8V416c0,4.4,3.6,8,8,8h48c4.4,0,8-3.6,8-8v-28.8c7.3-2.2,14.5-5.1,21.2-8.8l20.3,20.3
	c3.1,3.1,8.2,3.1,11.3,0l34-33.9c3.1-3.1,3.1-8.2,0-11.3l-20.3-20.3c3.7-6.7,6.6-13.8,8.8-21.2H328c4.4,0,8-3.6,8-8v-48
	C336,251.6,332.4,248,328,248z M320,296h-26.9c-3.7,0-6.9,2.6-7.8,6.2c-2.4,9.9-6.3,19.4-11.7,28.1c-1.9,3.2-1.5,7.2,1.2,9.9l19,19
	l-22.6,22.6l-19-19c-2.6-2.6-6.7-3.1-9.9-1.2c-8.7,5.4-18.2,9.3-28.1,11.7c-3.6,0.9-6.2,4.1-6.2,7.8V408h-32v-26.9
	c0-3.7-2.6-6.9-6.2-7.8c-9.9-2.4-19.4-6.3-28.1-11.7c-3.2-1.9-7.2-1.5-9.9,1.2l-19,19l-22.6-22.6l19-19c2.6-2.6,3.1-6.7,1.2-9.9
	c-5.4-8.7-9.3-18.2-11.7-28.1c-0.9-3.6-4.1-6.2-7.8-6.2H64v-32h26.9c3.7,0,6.9-2.6,7.8-6.2c2.4-9.9,6.3-19.4,11.7-28.1
	c1.9-3.2,1.5-7.2-1.2-9.9l-19-19l22.6-22.6l19,19c2.6,2.6,6.7,3.1,9.9,1.2c8.7-5.4,18.2-9.3,28.1-11.7c3.6-0.9,6.2-4.1,6.2-7.8V152
	h32v26.9c0,3.7,2.6,6.9,6.2,7.8c9.9,2.4,19.4,6.3,28.1,11.7c3.2,1.9,7.2,1.5,9.9-1.2l19-19l22.6,22.6l-19,19
	c-2.6,2.6-3.1,6.7-1.2,9.9c5.4,8.7,9.3,18.2,11.7,28.1c0.9,3.6,4.1,6.2,7.8,6.2H320V296z"/>
<path class="st0" d="M192,216c-35.3,0-64,28.7-64,64s28.7,64,64,64s64-28.7,64-64C256,244.7,227.3,216,192,216z M192,328
	c-26.5,0-48-21.5-48-48s21.5-48,48-48s48,21.5,48,48C240,306.5,218.5,328,192,328z"/>
</svg>
